<svg xmlns="http://www.w3.org/2000/svg" viewBox="0 0 800 320" role="img" aria-label="\mDÙÁô<0 ¨À X">
  <defs>
    <linearGradient id="bg" x1="0%" y1="0%" x2="100%" y2="100%">
      <stop offset="0%" stop-color="#F2E8DA"/>
      <stop offset="100%" stop-color="#EEF0E5"/>
    </linearGradient>
  </defs>
  <rect width="800" height="320" fill="url(#bg)"/>
  <g stroke="#E8DCC9" stroke-width="2">
    <line x1="0" y1="80" x2="800" y2="80"/>
    <line x1="0" y1="160" x2="800" y2="160"/>
    <line x1="0" y1="240" x2="800" y2="240"/>
    <line x1="160" y1="0" x2="160" y2="320"/>
    <line x1="320" y1="0" x2="320" y2="320"/>
    <line x1="480" y1="0" x2="480" y2="320"/>
    <line x1="640" y1="0" x2="640" y2="320"/>
  </g>
  <path d="M120 260 Q260 180 420 210 T700 120" fill="none" stroke="#D8CFC0" stroke-width="18" stroke-linecap="round"/>
  <path d="M80 120 Q220 90 360 130 T620 90" fill="none" stroke="#C9A45C" stroke-width="10" stroke-linecap="round" opacity="0.35"/>
  <circle cx="400" cy="165" r="34" fill="#C1694A" opacity="0.15"/>
  <circle cx="400" cy="165" r="10" fill="#C1694A"/>
  <path d="M400 175 L400 205 M385 190 L400 175 L415 190" fill="none" stroke="#96492F" stroke-width="3" stroke-linecap="round" stroke-linejoin="round"/>
  <rect x="292" y="218" width="216" height="36" rx="2" fill="rgba(255,255,255,0.92)" stroke="#E8DCC9"/>
  <text x="400" y="241" text-anchor="middle" fill="#3A2E27" font-family="sans-serif" font-size="13" font-weight="600">¸ü\ 201 SK¬T¤ð 7028</text>
</svg>
